HIERARCHY
ROOT SpineBase
{
  OFFSET 0.000000 0.000000 0.000000
  CHANNELS 6 Xposition Yposition Zposition Zrotation Xrotation Yrotation
  JOINT SpineMid
  {
    OFFSET 0.000000 32.593125 -0.000000
    CHANNELS 3 Zrotation Xrotation Yrotation
    JOINT SpineShoulder
    {
      OFFSET -0.292284 24.273947 -0.927539
      CHANNELS 3 Zrotation Xrotation Yrotation
      JOINT Neck
      {
        OFFSET -0.217500 8.040610 -0.636100
        CHANNELS 3 Zrotation Xrotation Yrotation
        JOINT Head
        {
          OFFSET 1.089190 13.038396 2.055591
          CHANNELS 3 Zrotation Xrotation Yrotation
          End Site
          {
            OFFSET 0 0 0
          }
        }
      }
      JOINT ShoulderLeft
      {
        OFFSET -14.515169 -6.672316 -8.116601
        CHANNELS 3 Zrotation Xrotation Yrotation
        JOINT ElbowLeft
        {
          OFFSET -5.228977 -27.573493 1.016432
          CHANNELS 3 Zrotation Xrotation Yrotation
          JOINT WristLeft
          {
            OFFSET -7.746599 -20.853920 10.524445
            CHANNELS 3 Zrotation Xrotation Yrotation
            JOINT HandLeft
            {
              OFFSET -1.332162 -6.382178 3.571463
              CHANNELS 3 Zrotation Xrotation Yrotation
              JOINT HandTipLeft
              {
                OFFSET 1.437353 -6.441981 1.876488
                CHANNELS 3 Zrotation Xrotation Yrotation
                End Site
                {
                  OFFSET 0 0 0
                }
              }
              JOINT ThumbLeft
              {
                OFFSET 2.780075 3.620839 -2.522408
                CHANNELS 3 Zrotation Xrotation Yrotation
                End Site
                {
                  OFFSET 0 0 0
                }
              }
            }
          }
        }
      }
      JOINT ShoulderRight
      {
        OFFSET 15.731576 -6.071899 -1.564837
        CHANNELS 3 Zrotation Xrotation Yrotation
        JOINT ElbowRight
        {
          OFFSET 6.495340 -24.431588 7.149322
          CHANNELS 3 Zrotation Xrotation Yrotation
          JOINT WristRight
          {
            OFFSET -27.492907 -7.333469 -6.585139
            CHANNELS 3 Zrotation Xrotation Yrotation
            JOINT HandRight
            {
              OFFSET -5.009281 -3.469240 -6.355334
              CHANNELS 3 Zrotation Xrotation Yrotation
              JOINT HandTipRight
              {
                OFFSET -5.878743 -8.212431 2.402583
                CHANNELS 3 Zrotation Xrotation Yrotation
                End Site
                {
                  OFFSET 0 0 0
                }
              }
              JOINT ThumbRight
              {
                OFFSET 2.354314 -3.025992 -3.654586
                CHANNELS 3 Zrotation Xrotation Yrotation
                End Site
                {
                  OFFSET 0 0 0
                }
              }
            }
          }
        }
      }
    }
  }
  JOINT HipLeft
  {
    OFFSET -7.469108 1.635449 -4.690336
    CHANNELS 3 Zrotation Xrotation Yrotation
    JOINT KneeLeft
    {
      OFFSET 3.315210 -39.723520 -2.468973
      CHANNELS 3 Zrotation Xrotation Yrotation
      JOINT AnkleLeft
      {
        OFFSET -0.589557 -30.830961 -3.105501
        CHANNELS 3 Zrotation Xrotation Yrotation
        JOINT FootLeft
        {
          OFFSET 5.289496 -5.429314 -1.242807
          CHANNELS 3 Zrotation Xrotation Yrotation
          End Site
          {
            OFFSET 0 0 0
          }
        }
      }
    }
  }
  JOINT HipRight
  {
    OFFSET 5.547262 1.469733 -1.860460
    CHANNELS 3 Zrotation Xrotation Yrotation
    JOINT KneeRight
    {
      OFFSET 1.431923 -38.735347 -2.599006
      CHANNELS 3 Zrotation Xrotation Yrotation
      JOINT AnkleRight
      {
        OFFSET 2.007365 -32.389218 -2.432517
        CHANNELS 3 Zrotation Xrotation Yrotation
        JOINT FootRight
        {
          OFFSET 1.389828 -2.966691 -12.959516
          CHANNELS 3 Zrotation Xrotation Yrotation
          End Site
          {
            OFFSET 0 0 0
          }
        }
      }
    }
  }
}
MOTION
Frames: 16
Frame Time: 0.033333
67.796681 75.055593 235.463557 -0.000000 -0.000000 -12.265742 -0.000000 0.000000 12.265742 -0.000000 0.000000 0.000000 -0.000000 0.000000 0.000000 0.000000 0.000000 0.000000 -0.000000 0.000000 0.000000 -0.000000 0.000000 0.000000 -0.000000 0.000000 0.000000 -0.000000 0.000000 0.000000 0.000000 0.000000 0.000000 0.000000 0.000000 0.000000 -0.000000 0.000000 0.000000 -0.000000 0.000000 0.000000 -0.000000 0.000000 0.000000 -0.000000 0.000000 0.000000 0.000000 0.000000 0.000000 0.000000 0.000000 0.000000 -0.000000 0.000000 12.265742 -0.000000 0.000000 0.000000 -0.000000 0.000000 0.000000 0.000000 0.000000 0.000000 -0.000000 0.000000 12.265742 -0.000000 0.000000 0.000000 -0.000000 0.000000 0.000000 0.000000 0.000000 0.000000
67.834468 75.050686 235.444140 0.036322 -0.014181 -12.161891 -0.038495 0.006210 12.161898 -0.000000 0.000000 0.000000 -0.000000 0.000000 0.000000 0.000000 0.000000 0.000000 -0.476249 -0.660797 0.104906 -0.142612 -1.029295 0.201286 0.007079 -1.038668 -0.090988 -0.744375 1.774085 -0.798178 0.000000 0.000000 0.000000 0.000000 0.000000 0.000000 -0.000000 0.000000 0.000000 -0.137708 -0.207379 0.898259 -1.823118 -4.631371 10.077475 4.552136 3.211403 -10.091755 0.000000 0.000000 0.000000 0.000000 0.000000 0.000000 -0.038495 0.006210 12.161898 -0.000000 0.000000 0.000000 3.326652 1.680840 0.801763 0.000000 0.000000 0.000000 -0.038495 0.006210 12.161898 -0.000000 0.000000 0.000000 -0.000000 0.000000 0.000000 0.000000 0.000000 0.000000
67.866807 75.045420 235.431515 0.066180 -0.031733 -12.058583 -0.071349 0.017207 12.058612 -0.000000 0.000000 0.000000 -0.000000 0.000000 0.000000 0.000000 0.000000 0.000000 -0.894697 -1.266210 0.196891 -0.094230 -1.695912 0.374802 0.121098 -1.288620 -0.204318 -1.585877 2.486252 -1.401495 0.000000 0.000000 0.000000 0.000000 0.000000 0.000000 -0.000000 0.000000 0.000000 -0.443763 -0.333462 1.627841 -2.537995 -8.099870 17.267902 8.437801 3.875784 -17.054118 0.000000 0.000000 0.000000 0.000000 0.000000 0.000000 -0.071349 0.017207 12.058612 -0.000000 0.000000 0.000000 6.769710 2.628990 0.804200 0.000000 0.000000 0.000000 -1.227885 -0.167342 12.137860 2.312246 -0.153308 -0.169267 -1.143027 0.087128 0.092168 0.000000 0.000000 0.000000
67.893699 75.039796 235.425682 0.089570 -0.052654 -11.955735 -0.098535 0.032957 11.955804 -0.000000 0.000000 0.000000 -0.000000 0.000000 0.000000 0.000000 0.000000 0.000000 -1.252715 -1.812189 0.276958 0.155234 -1.969031 0.521403 0.281535 -0.990777 -0.316091 -2.487632 2.323168 -1.880489 0.000000 0.000000 0.000000 0.000000 0.000000 0.000000 -0.000000 0.000000 0.000000 -0.920228 -0.380046 2.188433 -2.634186 -10.362794 21.881358 10.985878 2.861502 -20.922693 0.000000 0.000000 0.000000 0.000000 0.000000 0.000000 -0.098535 0.032957 11.955804 -0.000000 0.000000 0.000000 10.247275 2.772305 0.092298 0.000000 0.000000 0.000000 -1.560784 -0.203741 12.055586 2.870210 -0.162625 -0.207870 -1.391089 0.083570 0.110751 0.000000 0.000000 0.000000
67.915143 75.033812 235.426641 0.106490 -0.076945 -11.853266 -0.120024 0.053430 11.853394 -0.000000 0.000000 0.000000 -0.000000 0.000000 0.000000 0.000000 0.000000 0.000000 -1.548136 -2.295248 0.346094 0.610269 -1.829079 0.638312 0.462786 -0.269380 -0.415184 -3.439831 1.372084 -2.285631 0.000000 0.000000 0.000000 0.000000 0.000000 0.000000 -0.000000 0.000000 0.000000 -1.568303 -0.347525 2.580616 -2.413157 -11.574966 24.356433 12.039202 1.053248 -22.247703 0.000000 0.000000 0.000000 0.000000 0.000000 0.000000 -0.120024 0.053430 11.853394 -0.000000 0.000000 0.000000 13.646432 2.091067 -1.205756 0.000000 0.000000 0.000000 -1.701751 -0.208947 11.961305 3.030115 -0.125787 -0.217031 -1.428554 0.049166 0.111036 0.000000 0.000000 0.000000
67.931140 75.027469 235.434393 0.116939 -0.104602 -11.751094 -0.135792 0.078594 11.751294 -0.000000 0.000000 0.000000 -0.000000 0.000000 0.000000 0.000000 0.000000 0.000000 -1.779282 -2.712498 0.405217 1.269999 -1.267362 0.718472 0.668331 0.844603 -0.500367 -4.456259 -0.357535 -2.655519 0.000000 0.000000 0.000000 0.000000 0.000000 0.000000 -0.000000 0.000000 0.000000 -2.388280 -0.234859 2.805765 -2.017589 -11.841540 24.966624 11.736284 -0.935876 -21.610633 0.000000 0.000000 0.000000 0.000000 0.000000 0.000000 -0.135792 0.078594 11.751294 -0.000000 0.000000 0.000000 16.836715 0.623084 -2.939028 0.000000 0.000000 0.000000 -1.651226 -0.183893 11.855001 2.790961 -0.042074 -0.196516 -1.253878 -0.016700 0.093020 0.000000 0.000000 0.000000
67.944925 75.020308 235.441331 0.124429 -0.123832 -11.623331 -0.146827 0.096223 11.623589 -0.000000 0.000000 0.000000 -0.000000 0.000000 0.000000 0.000000 0.000000 0.000000 -1.918878 -3.082766 0.460448 2.005683 -0.466466 0.773666 1.484767 4.248047 -0.767432 -5.647254 -4.906503 -3.021204 0.000000 0.000000 0.000000 0.000000 0.000000 0.000000 -0.000000 0.000000 0.000000 -3.847643 0.073930 2.823770 -1.187298 -10.035184 21.725030 9.447462 -3.767912 -17.050001 0.000000 0.000000 0.000000 0.000000 0.000000 0.000000 -0.146827 0.096223 11.623589 -0.000000 0.000000 0.000000 20.419656 -2.300168 -5.590718 0.000000 0.000000 0.000000 -0.146827 0.096223 11.623589 -0.000000 0.000000 0.000000 -0.000000 0.000000 0.000000 0.000000 0.000000 0.000000
67.961763 75.017158 235.453428 0.140355 -0.150119 -11.483643 -0.167433 0.119170 11.484001 -0.000000 0.000000 0.000000 -0.000000 0.000000 0.000000 0.000000 0.000000 0.000000 -1.986718 -3.383305 0.507640 3.247599 1.171865 0.758441 1.191028 6.221553 -1.150962 -5.685592 -9.002768 -2.960688 0.000000 0.000000 0.000000 0.000000 0.000000 0.000000 -0.000000 0.000000 0.000000 -5.328058 0.452254 2.642500 0.196931 -5.994076 14.336367 6.637902 -6.450288 -9.487311 0.000000 0.000000 0.000000 0.000000 0.000000 0.000000 -0.167433 0.119170 11.484001 -0.000000 0.000000 0.000000 23.803509 -6.101869 -8.526095 0.000000 0.000000 0.000000 -0.167433 0.119170 11.484001 -0.000000 0.000000 0.000000 -0.000000 0.000000 0.000000 0.000000 0.000000 0.000000
67.954852 75.008321 235.484383 0.119311 -0.197077 -11.429556 -0.155999 0.169525 11.429992 -0.000000 0.000000 0.000000 -0.000000 0.000000 0.000000 0.000000 0.000000 0.000000 -2.068532 -3.593685 0.538095 4.794359 2.999443 0.744989 1.409003 9.237250 -1.580482 -7.608435 -13.630760 -3.480693 0.000000 0.000000 0.000000 0.000000 0.000000 0.000000 -0.000000 0.000000 0.000000 -7.126900 0.868912 2.583222 2.185351 -1.576608 6.735812 5.106093 -11.413076 -0.905997 0.000000 0.000000 0.000000 0.000000 0.000000 0.000000 -0.155999 0.169525 11.429992 -0.000000 0.000000 0.000000 25.192562 -8.940249 -10.461994 0.000000 0.000000 0.000000 -0.155999 0.169525 11.429992 -1.913438 0.561895 0.188051 1.911678 -0.567857 -0.169193 0.000000 0.000000 0.000000
67.932092 74.993009 235.547975 0.079530 -0.274389 -11.406390 -0.132225 0.253241 11.406873 -0.000000 0.000000 0.000000 -0.000000 0.000000 0.000000 0.000000 0.000000 0.000000 -2.086575 -3.708543 0.556451 6.251488 5.299126 0.456405 2.529965 11.487345 -1.321521 -10.659459 -17.280122 -4.692529 0.000000 0.000000 0.000000 0.000000 0.000000 0.000000 -0.000000 0.000000 0.000000 -7.920613 1.158582 2.254360 3.075810 1.379723 2.567584 5.119989 -14.068360 3.623287 0.000000 0.000000 0.000000 0.000000 0.000000 0.000000 -0.132225 0.253241 11.406873 -0.000000 0.000000 0.000000 24.388019 -9.602884 -10.851253 0.000000 0.000000 0.000000 -0.132225 0.253241 11.406873 -1.835836 0.659464 0.189432 2.642932 -0.290444 -3.455591 0.000000 0.000000 0.000000
67.884822 74.976700 235.636903 0.013321 -0.367710 -11.402128 -0.085753 0.357819 11.402438 -0.000000 0.000000 0.000000 -0.000000 0.000000 0.000000 0.000000 0.000000 0.000000 -2.034428 -3.714948 0.561190 7.765743 7.862874 0.019153 3.382609 12.818188 -0.856126 -14.467841 -18.963897 -6.278457 0.000000 0.000000 0.000000 0.000000 0.000000 0.000000 -0.000000 0.000000 0.000000 -8.148077 1.420409 1.646652 3.163896 1.898998 2.420200 4.685797 -15.603681 4.766043 0.000000 0.000000 0.000000 0.000000 0.000000 0.000000 -0.085753 0.357819 11.402438 -0.000000 0.000000 0.000000 22.573790 -7.738656 -9.511238 0.000000 0.000000 0.000000 -0.085753 0.357819 11.402438 -0.634268 0.683708 0.093785 0.377591 -0.877088 0.943801 0.000000 0.000000 0.000000
67.819543 74.959020 235.742085 -0.065387 -0.463808 -11.426570 -0.027794 0.467569 11.426419 -0.000000 0.000000 0.000000 -0.000000 0.000000 0.000000 0.000000 0.000000 0.000000 -1.906764 -3.579131 0.546725 9.004058 10.523598 -0.648730 4.433286 13.412983 0.106544 -18.117856 -18.206612 -7.599007 0.000000 0.000000 0.000000 0.000000 0.000000 0.000000 -0.000000 0.000000 0.000000 -7.119777 1.384015 1.043899 2.723252 -1.053382 6.073834 3.354559 -11.423120 0.376348 0.000000 0.000000 0.000000 0.000000 0.000000 0.000000 -0.027794 0.467569 11.426419 -0.000000 0.000000 0.000000 18.993250 -5.607152 -7.729710 0.000000 0.000000 0.000000 -0.860696 0.400481 11.492079 0.829553 -0.100145 -0.058626 -0.492426 1.515144 2.715536 0.000000 0.000000 0.000000
67.746453 74.941577 235.852095 -0.146210 -0.554017 -11.500209 0.032823 0.572044 11.499339 -0.000000 0.000000 0.000000 -0.000000 0.000000 0.000000 0.000000 0.000000 0.000000 -1.685487 -3.332893 0.519037 9.835772 12.953897 -1.424989 5.566892 13.836852 1.301604 -21.966928 -16.816104 -9.198632 0.000000 0.000000 0.000000 0.000000 0.000000 0.000000 -0.000000 0.000000 0.000000 -5.297910 1.125485 0.501763 1.512612 -0.657903 5.443948 1.783247 -10.273493 0.322898 0.000000 0.000000 0.000000 0.000000 0.000000 0.000000 0.032823 0.572044 11.499339 -0.000000 0.000000 0.000000 12.861513 -1.345802 -3.716470 0.000000 0.000000 0.000000 -1.262834 0.603723 11.608119 2.333177 0.243607 -0.138837 -2.403711 0.088109 6.042282 0.000000 0.000000 0.000000
67.671093 74.925918 235.951547 -0.223878 -0.622644 -11.587333 0.094259 0.654920 11.585578 -0.000000 0.000000 0.000000 -0.000000 0.000000 0.000000 0.000000 0.000000 0.000000 -1.472365 -2.903397 0.457573 10.446301 14.871747 -2.112173 6.419607 14.248207 2.362193 -25.297343 -15.954833 -10.820810 0.000000 0.000000 0.000000 0.000000 0.000000 0.000000 -0.000000 0.000000 0.000000 -2.512199 0.590962 0.049364 -1.262600 1.432924 3.701653 2.122024 -9.164054 0.804122 0.000000 0.000000 0.000000 0.000000 0.000000 0.000000 0.094259 0.654920 11.585578 -0.000000 0.000000 0.000000 7.659871 2.188183 0.214636 0.000000 0.000000 0.000000 -1.478679 0.777218 11.723114 3.267573 0.023177 -0.208281 -4.838945 -6.473770 13.913651 0.000000 0.000000 0.000000
67.605004 74.910733 236.036787 -0.282801 -0.671658 -11.650695 0.141352 0.714925 11.648155 -0.000000 0.000000 0.000000 -0.000000 0.000000 0.000000 0.000000 0.000000 0.000000 -1.220358 -2.270405 0.360448 10.629893 16.359517 -2.777599 7.516977 13.781029 4.017405 -27.953226 -12.600806 -11.786230 0.000000 0.000000 0.000000 0.000000 0.000000 0.000000 -0.000000 0.000000 0.000000 0.883350 -0.153225 -0.224362 -4.436682 4.346145 0.709239 1.884379 -8.812383 2.362523 0.000000 0.000000 0.000000 0.000000 0.000000 0.000000 0.141352 0.714925 11.648155 -0.000000 0.000000 0.000000 -0.176160 6.802220 6.598363 0.000000 0.000000 0.000000 -1.587047 0.923291 11.804098 3.997252 -0.165603 -0.259924 -6.160516 -12.933530 20.628440 0.000000 0.000000 0.000000
67.557929 74.900709 236.099215 -0.317381 -0.695415 -11.709533 0.169660 0.745349 11.706503 -0.000000 0.000000 0.000000 -0.000000 0.000000 0.000000 0.000000 0.000000 0.000000 -0.972797 -1.497105 0.234861 10.533722 17.443959 -3.369231 8.128063 12.447818 5.686890 -29.290964 -9.100278 -11.992859 0.000000 0.000000 0.000000 0.000000 0.000000 0.000000 -0.000000 0.000000 0.000000 4.066978 -0.844505 -0.531742 -7.153071 6.531206 -1.706983 1.766524 -7.750348 3.477460 0.000000 0.000000 0.000000 0.000000 0.000000 0.000000 0.169660 0.745349 11.706503 -0.000000 0.000000 0.000000 1.401579 7.104179 6.349686 0.000000 0.000000 0.000000 -1.614969 1.035204 11.871440 4.455883 -0.339962 -0.291754 -6.526218 -17.628581 24.467779 0.000000 0.000000 0.000000
